<?xml version="1.0" encoding="UTF-8" standalone="no"?>
<!-- Created with Inkscape (http://www.inkscape.org/) -->

<svg
   xmlns:dc="http://purl.org/dc/elements/1.1/"
   xmlns:cc="http://creativecommons.org/ns#"
   xmlns:rdf="http://www.w3.org/1999/02/22-rdf-syntax-ns#"
   xmlns:svg="http://www.w3.org/2000/svg"
   xmlns="http://www.w3.org/2000/svg"
   xmlns:sodipodi="http://sodipodi.sourceforge.net/DTD/sodipodi-0.dtd"
   xmlns:inkscape="http://www.inkscape.org/namespaces/inkscape"
   width="212.59842"
   height="212.59842"
   id="svg2"
   version="1.1"
   inkscape:version="0.48.4 r9939"
   sodipodi:docname="drill_template.svg">
  <defs
     id="defs4" />
  <sodipodi:namedview
     id="base"
     pagecolor="#ffffff"
     bordercolor="#666666"
     borderopacity="1.0"
     inkscape:pageopacity="0.0"
     inkscape:pageshadow="2"
     inkscape:zoom="0.98994949"
     inkscape:cx="336.48445"
     inkscape:cy="38.367061"
     inkscape:document-units="mm"
     inkscape:current-layer="layer1"
     showgrid="true"
     showguides="true"
     inkscape:guide-bbox="true"
     units="mm"
     showborder="true"
     inkscape:showpageshadow="false"
     objecttolerance="10000"
     inkscape:window-width="1343"
     inkscape:window-height="747"
     inkscape:window-x="150"
     inkscape:window-y="463"
     inkscape:window-maximized="0">
    <sodipodi:guide
       position="744.09448,1052.3622"
       orientation="0,-744.09448"
       id="guide2989" />
    <sodipodi:guide
       position="744.09448,1052.3622"
       orientation="0,-744.09448"
       id="guide2997" />
    <inkscape:grid
       type="xygrid"
       id="grid3001"
       empspacing="10"
       visible="true"
       enabled="true"
       snapvisiblegridlinesonly="true"
       units="mm"
       spacingx="0.1mm"
       spacingy="0.1mm"
       dotted="true" />
  </sodipodi:namedview>
  <metadata
     id="metadata7">
    <rdf:RDF>
      <cc:Work
         rdf:about="">
        <dc:format>image/svg+xml</dc:format>
        <dc:type
           rdf:resource="http://purl.org/dc/dcmitype/StillImage" />
        <dc:title></dc:title>
      </cc:Work>
    </rdf:RDF>
  </metadata>
  <g
     inkscape:label="Layer 1"
     inkscape:groupmode="layer"
     id="layer1"
     transform="translate(0,-839.76377)">
    <g
       id="g3228">
      <path
         transform="translate(0,839.76377)"
         d="m 120.47244,106.29921 a 14.173228,14.173228 0 1 1 -28.346459,0 14.173228,14.173228 0 1 1 28.346459,0 z"
         sodipodi:ry="14.173228"
         sodipodi:rx="14.173228"
         sodipodi:cy="106.29921"
         sodipodi:cx="106.29921"
         id="path3005"
         style="fill:#ff0000;fill-rule:evenodd;stroke:#000000;stroke-width:1px;stroke-linecap:butt;stroke-linejoin:miter;stroke-opacity:1"
         sodipodi:type="arc" />
      <path
         transform="translate(0,839.76377)"
         d="m 120.47244,63.779522 a 14.173228,14.173228 0 1 1 -28.346459,0 14.173228,14.173228 0 1 1 28.346459,0 z"
         sodipodi:ry="14.173228"
         sodipodi:rx="14.173228"
         sodipodi:cy="63.779522"
         sodipodi:cx="106.29921"
         id="path3007"
         style="fill:#ff0000;fill-rule:evenodd;stroke:#000000;stroke-width:1px;stroke-linecap:butt;stroke-linejoin:miter;stroke-opacity:1"
         sodipodi:type="arc" />
      <path
         transform="translate(0,826.63179)"
         d="m 120.47244,162.99213 a 14.173228,14.173228 0 1 1 -28.346459,0 14.173228,14.173228 0 1 1 28.346459,0 z"
         sodipodi:ry="14.173228"
         sodipodi:rx="14.173228"
         sodipodi:cy="162.99213"
         sodipodi:cx="106.29921"
         id="path3009"
         style="fill:#ff0000;fill-rule:evenodd;stroke:#000000;stroke-width:1px;stroke-linecap:butt;stroke-linejoin:miter;stroke-opacity:1"
         sodipodi:type="arc" />
      <path
         d="m 120.47244,106.29921 a 14.173228,14.173228 0 1 1 -28.346459,0 14.173228,14.173228 0 1 1 28.346459,0 z"
         sodipodi:ry="14.173228"
         sodipodi:rx="14.173228"
         sodipodi:cy="106.29921"
         sodipodi:cx="106.29921"
         id="path3005-1"
         style="fill:#ff0000;fill-rule:evenodd;stroke:#000000;stroke-width:1px;stroke-linecap:butt;stroke-linejoin:miter;stroke-opacity:1"
         sodipodi:type="arc"
         transform="translate(-42.364223,839.81041)" />
      <path
         d="m 120.47244,106.29921 a 14.173228,14.173228 0 1 1 -28.346459,0 14.173228,14.173228 0 1 1 28.346459,0 z"
         sodipodi:ry="14.173228"
         sodipodi:rx="14.173228"
         sodipodi:cy="106.29921"
         sodipodi:cx="106.29921"
         id="path3005-1-7"
         style="fill:#ff0000;fill-rule:evenodd;stroke:#000000;stroke-width:1px;stroke-linecap:butt;stroke-linejoin:miter;stroke-opacity:1"
         sodipodi:type="arc"
         transform="translate(43.6853,839.6667)" />
      <path
         transform="translate(35.273811,818.43795)"
         d="m 120.47244,162.99213 a 14.173228,14.173228 0 1 1 -28.346459,0 14.173228,14.173228 0 1 1 28.346459,0 z"
         sodipodi:ry="14.173228"
         sodipodi:rx="14.173228"
         sodipodi:cy="162.99213"
         sodipodi:cx="106.29921"
         id="path3009-4"
         style="fill:#ff0000;fill-rule:evenodd;stroke:#000000;stroke-width:1px;stroke-linecap:butt;stroke-linejoin:miter;stroke-opacity:1"
         sodipodi:type="arc" />
      <path
         transform="translate(-35.343586,818.48458)"
         d="m 120.47244,162.99213 a 14.173228,14.173228 0 1 1 -28.346459,0 14.173228,14.173228 0 1 1 28.346459,0 z"
         sodipodi:ry="14.173228"
         sodipodi:rx="14.173228"
         sodipodi:cy="162.99213"
         sodipodi:cx="106.29921"
         id="path3009-4-0"
         style="fill:#ff0000;fill-rule:evenodd;stroke:#000000;stroke-width:1px;stroke-linecap:butt;stroke-linejoin:miter;stroke-opacity:1"
         sodipodi:type="arc" />
      <path
         transform="translate(35.382639,747.75837)"
         d="m 120.47244,162.99213 a 14.173228,14.173228 0 1 1 -28.346459,0 14.173228,14.173228 0 1 1 28.346459,0 z"
         sodipodi:ry="14.173228"
         sodipodi:rx="14.173228"
         sodipodi:cy="162.99213"
         sodipodi:cx="106.29921"
         id="path3009-4-9"
         style="fill:#ff0000;fill-rule:evenodd;stroke:#000000;stroke-width:1px;stroke-linecap:butt;stroke-linejoin:miter;stroke-opacity:1"
         sodipodi:type="arc" />
      <path
         transform="translate(-35.32804,747.69617)"
         d="m 120.47244,162.99213 a 14.173228,14.173228 0 1 1 -28.346459,0 14.173228,14.173228 0 1 1 28.346459,0 z"
         sodipodi:ry="14.173228"
         sodipodi:rx="14.173228"
         sodipodi:cy="162.99213"
         sodipodi:cx="106.29921"
         id="path3009-4-4"
         style="fill:#ff0000;fill-rule:evenodd;stroke:#000000;stroke-width:1px;stroke-linecap:butt;stroke-linejoin:miter;stroke-opacity:1"
         sodipodi:type="arc" />
      <path
         d="m 120.47244,63.779522 a 14.173228,14.173228 0 1 1 -28.346459,0 14.173228,14.173228 0 1 1 28.346459,0 z"
         sodipodi:ry="14.173228"
         sodipodi:rx="14.173228"
         sodipodi:cy="63.779522"
         sodipodi:cx="106.29921"
         id="path3007-8"
         style="fill:#ff0000;fill-rule:evenodd;stroke:#000000;stroke-width:1px;stroke-linecap:butt;stroke-linejoin:miter;stroke-opacity:1"
         sodipodi:type="arc"
         transform="translate(-0.31852012,797.06548)" />
      <path
         d="m 120.47244,63.779522 a 14.173228,14.173228 0 1 1 -28.346459,0 14.173228,14.173228 0 1 1 28.346459,0 z"
         sodipodi:ry="14.173228"
         sodipodi:rx="14.173228"
         sodipodi:cy="63.779522"
         sodipodi:cx="106.29921"
         id="path3007-82"
         style="fill:#ff0000;fill-rule:evenodd;stroke:#000000;stroke-width:1px;stroke-linecap:butt;stroke-linejoin:miter;stroke-opacity:1"
         sodipodi:type="arc"
         transform="translate(-0.38070584,967.81235)" />
      <path
         d="m 120.47244,63.779522 a 14.173228,14.173228 0 1 1 -28.346459,0 14.173228,14.173228 0 1 1 28.346459,0 z"
         sodipodi:ry="14.173228"
         sodipodi:rx="14.173228"
         sodipodi:cy="63.779522"
         sodipodi:cx="106.29921"
         id="path3007-4"
         style="fill:#ff0000;fill-rule:evenodd;stroke:#000000;stroke-width:1px;stroke-linecap:butt;stroke-linejoin:miter;stroke-opacity:1"
         sodipodi:type="arc"
         transform="translate(85.513353,882.29521)" />
      <path
         d="m 120.47244,63.779522 a 14.173228,14.173228 0 1 1 -28.346459,0 14.173228,14.173228 0 1 1 28.346459,0 z"
         sodipodi:ry="14.173228"
         sodipodi:rx="14.173228"
         sodipodi:cy="63.779522"
         sodipodi:cx="106.29921"
         id="path3007-5"
         style="fill:#ff0000;fill-rule:evenodd;stroke:#000000;stroke-width:1px;stroke-linecap:butt;stroke-linejoin:miter;stroke-opacity:1"
         sodipodi:type="arc"
         transform="translate(-85.552043,882.15528)" />
      <path
         d="m 120.47244,63.779522 a 14.173228,14.173228 0 1 1 -28.346459,0 14.173228,14.173228 0 1 1 28.346459,0 z"
         sodipodi:ry="14.173228"
         sodipodi:rx="14.173228"
         sodipodi:cy="63.779522"
         sodipodi:cx="106.29921"
         id="path3007-51"
         style="fill:#ff0000;fill-rule:evenodd;stroke:#000000;stroke-width:1px;stroke-linecap:butt;stroke-linejoin:miter;stroke-opacity:1"
         sodipodi:type="arc"
         transform="translate(71.00606,953.13405)" />
      <path
         d="m 120.47244,63.779522 a 14.173228,14.173228 0 1 1 -28.346459,0 14.173228,14.173228 0 1 1 28.346459,0 z"
         sodipodi:ry="14.173228"
         sodipodi:rx="14.173228"
         sodipodi:cy="63.779522"
         sodipodi:cx="106.29921"
         id="path3007-7"
         style="fill:#ff0000;fill-rule:evenodd;stroke:#000000;stroke-width:1px;stroke-linecap:butt;stroke-linejoin:miter;stroke-opacity:1"
         sodipodi:type="arc"
         transform="translate(-71.052531,953.13804)" />
      <path
         d="m 120.47244,63.779522 a 14.173228,14.173228 0 1 1 -28.346459,0 14.173228,14.173228 0 1 1 28.346459,0 z"
         sodipodi:ry="14.173228"
         sodipodi:rx="14.173228"
         sodipodi:cy="63.779522"
         sodipodi:cx="106.29921"
         id="path3007-1"
         style="fill:#ff0000;fill-rule:evenodd;stroke:#000000;stroke-width:1px;stroke-linecap:butt;stroke-linejoin:miter;stroke-opacity:1"
         sodipodi:type="arc"
         transform="translate(-70.866142,811.4484)" />
      <path
         d="m 120.47244,63.779522 a 14.173228,14.173228 0 1 1 -28.346459,0 14.173228,14.173228 0 1 1 28.346459,0 z"
         sodipodi:ry="14.173228"
         sodipodi:rx="14.173228"
         sodipodi:cy="63.779522"
         sodipodi:cx="106.29921"
         id="path3007-15"
         style="fill:#ff0000;fill-rule:evenodd;stroke:#000000;stroke-width:1px;stroke-linecap:butt;stroke-linejoin:miter;stroke-opacity:1"
         sodipodi:type="arc"
         transform="translate(70.943871,811.46394)" />
      <path
         transform="translate(0,839.76377)"
         d="m 7.0866141,-6.0073971e-6 a 7.0866141,7.0866141 0 1 1 -14.1732282,0 7.0866141,7.0866141 0 1 1 14.1732282,0 z"
         sodipodi:ry="7.0866141"
         sodipodi:rx="7.0866141"
         sodipodi:cy="-6.0073971e-006"
         sodipodi:cx="0"
         id="path3184"
         style="fill:#241c1c"
         sodipodi:type="arc" />
      <path
         d="m 7.0866141,-6.0073971e-6 a 7.0866141,7.0866141 0 1 1 -14.1732282,0 7.0866141,7.0866141 0 1 1 14.1732282,0 z"
         sodipodi:ry="7.0866141"
         sodipodi:rx="7.0866141"
         sodipodi:cy="-6.0073971e-006"
         sodipodi:cx="0"
         id="path3184-2"
         style="fill:#241c1c"
         sodipodi:type="arc"
         transform="translate(212.68376,839.85704)" />
      <path
         d="m 7.0866141,-6.0073971e-6 a 7.0866141,7.0866141 0 1 1 -14.1732282,0 7.0866141,7.0866141 0 1 1 14.1732282,0 z"
         sodipodi:ry="7.0866141"
         sodipodi:rx="7.0866141"
         sodipodi:cy="-6.0073971e-006"
         sodipodi:cx="0"
         id="path3184-7"
         style="fill:#241c1c"
         sodipodi:type="arc"
         transform="translate(-0.13991761,1052.5408)" />
      <path
         d="m 7.0866141,-6.0073971e-6 a 7.0866141,7.0866141 0 1 1 -14.1732282,0 7.0866141,7.0866141 0 1 1 14.1732282,0 z"
         sodipodi:ry="7.0866141"
         sodipodi:rx="7.0866141"
         sodipodi:cy="-6.0073971e-006"
         sodipodi:cx="0"
         id="path3184-6"
         style="fill:#241c1c"
         sodipodi:type="arc"
         transform="translate(212.66821,1052.3467)" />
      <rect
         transform="translate(0,839.76377)"
         y="-35.433079"
         x="-35.433071"
         height="283.46457"
         width="283.46457"
         id="rect3226"
         style="fill:none;stroke:#241c1c" />
    </g>
  </g>
</svg>
